<svg width="183" height="75" viewBox="0 0 183 75" fill="none" xmlns="http://www.w3.org/2000/svg">
<path d="M66.1943 3.25782C67.9595 1.32639 70.4555 0.226196 73.072 0.226196H173.682C178.828 0.226196 183 4.39777 183 9.54366V65.4484C183 70.5943 178.828 74.7659 173.682 74.7659H21.9785C13.8779 74.7659 9.63588 65.1421 15.1008 59.1626L66.1943 3.25782Z" fill="#FFA503"/>
<path d="M102.366 51.7544L98.3921 47.7801" stroke="white" stroke-width="2.81027" stroke-linecap="round" stroke-linejoin="round"/>
<path d="M125.119 23.7851C120.872 23.3131 105.434 22.9778 100.379 41.8186L108.328 49.7673C127.032 44.5758 126.796 29.2622 126.361 25.0271C126.333 24.7073 126.192 24.4079 125.965 24.1809C125.738 23.9539 125.439 23.8138 125.119 23.7851Z" stroke="white" stroke-width="2.81027" stroke-linecap="round" stroke-linejoin="round"/>
<path d="M107.645 29.0634L99.075 29.8334C98.8621 29.8498 98.6563 29.917 98.4747 30.0294C98.2932 30.1417 98.1413 30.296 98.0317 30.4792L92.6415 38.9247C92.514 39.126 92.4397 39.3564 92.4257 39.5943C92.4117 39.8322 92.4584 40.0698 92.5615 40.2847C92.6646 40.4995 92.8206 40.6847 93.015 40.8226C93.2093 40.9606 93.4355 41.0468 93.6724 41.0733L100.379 41.8185" stroke="white" stroke-width="2.81027" stroke-linecap="round" stroke-linejoin="round"/>
<path d="M121.108 42.3278L120.313 51.0713C120.296 51.2842 120.229 51.49 120.117 51.6715C120.004 51.8531 119.85 52.005 119.667 52.1146L111.221 57.5048C111.02 57.6323 110.79 57.7066 110.552 57.7206C110.314 57.7346 110.076 57.6879 109.861 57.5848C109.647 57.4817 109.461 57.3256 109.323 57.1313C109.185 56.937 109.099 56.7108 109.073 56.4739L108.328 49.7672" stroke="white" stroke-width="2.81027" stroke-linecap="round" stroke-linejoin="round"/>
<path d="M114.786 35.3603C115.609 36.1834 116.944 36.1834 117.767 35.3603C118.59 34.5372 118.59 33.2026 117.767 32.3795C116.944 31.5564 115.609 31.5564 114.786 32.3795C113.963 33.2026 113.963 34.5372 114.786 35.3603Z" fill="white"/>
</svg>
